<svg width="18" height="28" viewBox="0 0 18 28" fill="none" xmlns="http://www.w3.org/2000/svg">
<path d="M4.33165 25.4356L5.03287 24.7234L3.57192 23.356L2.8707 24.0682L4.33165 25.4356ZM0.655419 26.3182C0.268145 26.7116 0.281242 27.3365 0.684673 27.7141C1.0881 28.0917 1.7291 28.0789 2.11637 27.6856L0.655419 26.3182ZM2.8707 24.0682L0.655419 26.3182L2.11637 27.6856L4.33165 25.4356L2.8707 24.0682Z" fill="#404041"/>
<path d="M15.1269 24.0663L14.4257 23.3541L12.9648 24.7215L13.666 25.4337L15.1269 24.0663ZM15.8813 27.6837C16.2686 28.077 16.9096 28.0898 17.313 27.7122C17.7164 27.3346 17.7295 26.7096 17.3422 26.3162L15.8813 27.6837ZM13.666 25.4337L15.8813 27.6837L17.3422 26.3162L15.1269 24.0663L13.666 25.4337Z" fill="#404041"/>
<mask id="path-3-inside-1_992_1551" fill="white">
<rect width="18" height="24.75" rx="1"/>
</mask>
<rect width="18" height="24.75" rx="1" stroke="#404041" stroke-width="4" stroke-linejoin="round" mask="url(#path-3-inside-1_992_1551)"/>
<line x1="1.125" y1="4.625" x2="18" y2="4.625" stroke="#404041" stroke-width="2"/>
<line x1="9.09197e-08" y1="14.75" x2="16.875" y2="14.75" stroke="#404041" stroke-width="2"/>
<path d="M1.38867 19.5781H5.54251" stroke="#404041" stroke-width="2" stroke-linecap="round"/>
<path d="M12.4629 19.5781H16.6167" stroke="#404041" stroke-width="2" stroke-linecap="round"/>
</svg>
