<svg width="26" height="26" viewBox="0 0 26 26" fill="none" xmlns="http://www.w3.org/2000/svg">
<path fill-rule="evenodd" clip-rule="evenodd" d="M1.75846 24.2406C2.67399 25.1562 3.58952 25.1562 4.96283 24.6983L18.4923 17.7286C19.2721 17.3269 19.4351 16.2824 18.815 15.6621L10.337 7.18411C9.71666 6.56384 8.67215 6.72689 8.27043 7.5067L1.30068 21.0362C0.84292 22.4094 0.84292 23.325 1.75846 24.2406Z" stroke="white" stroke-width="1.5" stroke-linecap="round"/>
<path d="M19.8203 6.18116L21.5909 5.29584C21.9938 5.09442 22.081 4.5575 21.7625 4.23902C21.4439 3.92053 21.5311 3.38362 21.934 3.18219L23.7046 2.29688" stroke="white" stroke-width="1.5" stroke-linecap="round"/>
<path d="M17.2307 8.76562H17.3931" stroke="white" stroke-width="1.5" stroke-linecap="round"/>
<path d="M21.6006 13.2969H21.763" stroke="white" stroke-width="1.5" stroke-linecap="round"/>
<path d="M12.0511 3.59058L10.7563 1.64844" stroke="white" stroke-width="1.5" stroke-linecap="round"/>
<path d="M16.5831 4.23691L17.2305 1" stroke="white" stroke-width="1.5" stroke-linecap="round"/>
<path d="M24.9991 10.0614L21.7622 9.41406" stroke="white" stroke-width="1.5" stroke-linecap="round"/>
<path d="M12.0518 9.41406V21.0669" stroke="white" stroke-width="1.5" stroke-linecap="round"/>
<path d="M6.87207 10.7109V23.6586" stroke="white" stroke-width="1.5" stroke-linecap="round"/>
</svg>
