<svg width="23" height="36" viewBox="0 0 23 36" fill="none" xmlns="http://www.w3.org/2000/svg">
<path d="M1 8.27126H20.6875C21.475 8.27126 22 8.80584 22 9.6077V33.6636C22 34.4654 21.475 35 20.6875 35H2.3125C1.525 35 1 34.4654 1 33.6636V8.27126ZM1 8.27126L16.225 1.18814C17.0125 0.65357 18.0625 1.32179 18.0625 2.39094V8.27126" stroke="white" stroke-width="1.5" stroke-miterlimit="10" stroke-linecap="round" stroke-linejoin="round"/>
<path d="M9.36499 14H14.635L15.7288 16.5868C16.3254 18.1198 15.9277 19.8443 14.635 20.994C13.1435 22.3353 10.8565 22.3353 9.36499 20.994C8.07235 19.9401 7.67461 18.1198 8.27122 16.5868L9.36499 14Z" stroke="white" stroke-width="1.5" stroke-miterlimit="10" stroke-linecap="round" stroke-linejoin="round"/>
<path d="M12 27C12 27.9655 10.4348 28.7931 8 29H16" stroke="white" stroke-width="1.5" stroke-miterlimit="10" stroke-linecap="round" stroke-linejoin="round"/>
<path d="M12 22V24.1724V25.5C12 27.1897 13.1739 28.6379 15 29" stroke="white" stroke-width="1.5" stroke-miterlimit="10" stroke-linecap="round" stroke-linejoin="round"/>
</svg>
