<svg width="30" height="24" viewBox="0 0 30 24" fill="none" xmlns="http://www.w3.org/2000/svg">
<g id="Group 93">
<path id="Vector 26" d="M3.54297 9.59531L7.21124 1.58369C7.37408 1.22805 7.72932 1 8.12047 1H21.0044C21.3956 1 21.7508 1.22805 21.9137 1.58369L25.5819 9.59531M3.54297 9.59531V18.4799C3.54297 19.0322 3.99068 19.4799 4.54297 19.4799H24.5819C25.1342 19.4799 25.5819 19.0322 25.5819 18.4799V9.59531M3.54297 9.59531H25.5819" stroke="#404041" stroke-width="2" stroke-linejoin="round"/>
<path id="Line 35" d="M4.39062 9.39844H1.00002" stroke="#404041" stroke-width="2" stroke-linecap="round" stroke-linejoin="round"/>
<path id="Line 36" d="M28.125 10.3984C28.6773 10.3984 29.125 9.95072 29.125 9.39844C29.125 8.84615 28.6773 8.39844 28.125 8.39844L28.125 10.3984ZM26.4297 8.39844L25.4297 8.39844L25.4297 10.3984L26.4297 10.3984L26.4297 8.39844ZM28.125 8.39844L26.4297 8.39844L26.4297 10.3984L28.125 10.3984L28.125 8.39844Z" fill="#404041"/>
<path id="Line 37" d="M6.08594 19.4844L6.08594 22.0044" stroke="#404041" stroke-width="2" stroke-linecap="round" stroke-linejoin="round"/>
<path id="Line 38" d="M23.0391 19.4844L23.0391 22.0044" stroke="#404041" stroke-width="2" stroke-linecap="round" stroke-linejoin="round"/>
<path id="Line 39" d="M3.54297 14.0156H8.62888" stroke="#404041" stroke-width="2" stroke-linecap="round" stroke-linejoin="round"/>
<path id="Line 40" d="M20.4961 14.0156H25.582" stroke="#404041" stroke-width="2" stroke-linecap="round" stroke-linejoin="round"/>
</g>
</svg>
