<svg width="16" height="18" viewBox="0 0 16 18" fill="none" xmlns="http://www.w3.org/2000/svg">
<path d="M13.2493 7.34906V6.7688C13.2493 3.58278 10.8991 1 8 1C5.10088 1 2.75068 3.58278 2.75068 6.7688V7.34906C2.75068 8.04546 2.56312 8.72619 2.21162 9.30562L1.35028 10.7255C0.563527 12.0224 1.16415 13.7852 2.5325 14.1953C6.11213 15.2682 9.8879 15.2682 13.4675 14.1953C14.8359 13.7852 15.4365 12.0224 14.6497 10.7255L13.7884 9.30562C13.4369 8.72619 13.2493 8.04546 13.2493 7.34906Z" stroke="white"/>
<path d="M5 15C5.50947 16.1652 6.88414 17 8.5 17C10.1158 17 11.4906 16.1652 12 15" stroke="white" stroke-linecap="round"/>
</svg>
