<svg width="15" height="13" viewBox="0 0 15 13" fill="none" xmlns="http://www.w3.org/2000/svg">
<g id="Group">
<path id="Vector 55" d="M5.49998 10.4982L0.999982 5.99821C-0.499347 2.99776 0.998642 1.9991 2.49797 0.999551L2.49998 0.99821C3.99998 -0.00179005 5.49998 0.49821 6.49998 1.49821C7.49998 2.49821 7.49998 1.99821 7.99998 1.49821C9.49998 -0.00179005 12.5 0.49821 13 0.99821C13.5 1.49821 14 2.49821 14.5 2.99821C14.9 3.39821 14.3333 5.16488 14 5.99821L11 9.49821L7.49998 12.4982L5.49998 10.4982Z" fill="#404041"/>
<path id="Vector" d="M13.7884 1.2069C13.003 0.432602 11.9631 0.00940443 10.8533 0.00940443C9.74348 0.00940443 8.70044 0.435737 7.91499 1.21003L7.50477 1.61442L7.08819 1.20376C6.30274 0.429467 5.25652 0 4.14671 0C3.04008 0 1.99704 0.426332 1.21477 1.19749C0.429315 1.97179 -0.00316257 3 1.74127e-05 4.09404C1.74127e-05 5.18809 0.435675 6.21317 1.22113 6.98746L7.19313 12.8746C7.27581 12.9561 7.38711 13 7.49523 13C7.60335 13 7.71465 12.9592 7.79733 12.8777L13.7821 7C14.5675 6.22571 15 5.19749 15 4.10345C15.0032 3.0094 14.5739 1.98119 13.7884 1.2069ZM13.1779 6.40125L7.49523 11.9812L1.82533 6.39185C1.20205 5.77743 0.858612 4.96238 0.858612 4.09404C0.858612 3.22571 1.19887 2.41066 1.82215 1.79937C2.44224 1.18809 3.26904 0.84953 4.14671 0.84953C5.02757 0.84953 5.85754 1.18809 6.48082 1.80251L7.19949 2.51097C7.36803 2.67712 7.63833 2.67712 7.80687 2.51097L8.51918 1.80878C9.14246 1.19436 9.97243 0.855799 10.8501 0.855799C11.7278 0.855799 12.5546 1.19436 13.1779 1.80564C13.8011 2.42006 14.1414 3.23511 14.1414 4.10345C14.1446 4.97179 13.8011 5.78683 13.1779 6.40125Z" fill="#404041"/>
</g>
</svg>
