<svg width="26" height="22" viewBox="0 0 26 22" fill="none" xmlns="http://www.w3.org/2000/svg">
<g id="Group 94">
<path id="Ellipse 30" d="M6.24749 8.0769C7.02901 9.30013 6.68056 10.6705 5.78691 11.2197C4.89326 11.7688 3.48389 11.4787 2.70236 10.2554C1.92084 9.03221 2.26929 7.66183 3.16294 7.11267C4.05659 6.5635 5.46596 6.85366 6.24749 8.0769Z" stroke="#404041" stroke-width="2"/>
<path id="Ellipse 31" d="M11.3617 3.6315C11.8318 5.07661 11.1404 6.327 10.1799 6.62752C9.21946 6.92805 7.91743 6.30139 7.44733 4.85628C6.97723 3.41117 7.66865 2.16078 8.62912 1.86026C9.58958 1.55974 10.8916 2.1864 11.3617 3.6315Z" stroke="#404041" stroke-width="2"/>
<path id="Ellipse 32" d="M18.448 4.4931C18.2506 5.97947 17.0968 6.81598 16.1059 6.68942C15.1149 6.56286 14.218 5.46444 14.4153 3.97807C14.6127 2.4917 15.7665 1.65519 16.7575 1.78175C17.7485 1.90832 18.6454 3.00673 18.448 4.4931Z" stroke="#404041" stroke-width="2"/>
<path id="Ellipse 33" d="M22.9637 10.349C21.9637 11.582 20.5169 11.6972 19.7675 11.1126C19.0182 10.528 18.8072 9.11958 19.8072 7.88658C20.8072 6.65358 22.254 6.53838 23.0034 7.12298C23.7528 7.70759 23.9638 9.11605 22.9637 10.349Z" stroke="#404041" stroke-width="2"/>
<path id="Vector 27" d="M12.9314 9.88281C7.98493 9.88281 6.7483 14.9361 6.7483 17.4628C6.57655 18.6419 7.57272 21.0001 12.9314 21.0001C18.2901 21.0001 19.2863 18.6419 19.1145 17.4628C19.1145 14.9361 17.8779 9.88281 12.9314 9.88281Z" stroke="#404041" stroke-width="2"/>
</g>
</svg>
