<svg width="12" height="16" viewBox="0 0 12 16" fill="none" xmlns="http://www.w3.org/2000/svg">
<path fill-rule="evenodd" clip-rule="evenodd" d="M9.68779 5H1.56218C1.11363 5 0.75 5.37295 0.75 5.833V12.5C0.75 13.8807 1.84131 15 3.1875 15H8.06249C8.70899 15 9.32899 14.7366 9.78609 14.2678C10.2432 13.7989 10.5 13.163 10.5 12.5V5.833C10.5 5.37295 10.1364 5 9.68779 5Z" stroke="#DD3B41" stroke-width="1.5" stroke-linecap="round" stroke-linejoin="round"/>
<path fill-rule="evenodd" clip-rule="evenodd" d="M8.55005 3L7.84415 1.553C7.67915 1.21427 7.34175 1.0002 6.97255 1H4.27765C3.90843 1.0002 3.57101 1.21427 3.40597 1.553L2.70007 3H8.55005Z" stroke="#DD3B41" stroke-width="1.5" stroke-linecap="round" stroke-linejoin="round"/>
<mask id="path-3-inside-1_1784_10" fill="white">
<path d="M4.74969 8.333C4.74969 7.9188 4.41389 7.583 3.99969 7.583C3.58546 7.583 3.24968 7.9188 3.24968 8.333H4.74969ZM3.24968 11.666C3.24968 12.0802 3.58546 12.416 3.99969 12.416C4.41389 12.416 4.74969 12.0802 4.74969 11.666H3.24968ZM8.00029 8.333C8.00029 7.9188 7.66459 7.583 7.25029 7.583C6.83609 7.583 6.50029 7.9188 6.50029 8.333H8.00029ZM6.50029 11.666C6.50029 12.0802 6.83609 12.416 7.25029 12.416C7.66459 12.416 8.00029 12.0802 8.00029 11.666H6.50029ZM8.54999 2.25C8.13579 2.25 7.79999 2.58579 7.79999 3C7.79999 3.41421 8.13579 3.75 8.54999 3.75V2.25ZM10.5 3.75C10.9142 3.75 11.25 3.41421 11.25 3C11.25 2.58579 10.9142 2.25 10.5 2.25V3.75ZM2.7 3.75C3.11422 3.75 3.45 3.41421 3.45 3C3.45 2.58579 3.11422 2.25 2.7 2.25V3.75ZM0.75 2.25C0.33579 2.25 0 2.58579 0 3C0 3.41421 0.33579 3.75 0.75 3.75V2.25ZM3.24968 8.333V11.666H4.74969V8.333H3.24968ZM6.50029 8.333V11.666H8.00029V8.333H6.50029ZM8.54999 3.75H10.5V2.25H8.54999V3.75ZM2.7 2.25H0.75V3.75H2.7V2.25Z"/>
</mask>
<path d="M4.74969 8.333C4.74969 7.9188 4.41389 7.583 3.99969 7.583C3.58546 7.583 3.24968 7.9188 3.24968 8.333H4.74969ZM3.24968 11.666C3.24968 12.0802 3.58546 12.416 3.99969 12.416C4.41389 12.416 4.74969 12.0802 4.74969 11.666H3.24968ZM8.00029 8.333C8.00029 7.9188 7.66459 7.583 7.25029 7.583C6.83609 7.583 6.50029 7.9188 6.50029 8.333H8.00029ZM6.50029 11.666C6.50029 12.0802 6.83609 12.416 7.25029 12.416C7.66459 12.416 8.00029 12.0802 8.00029 11.666H6.50029ZM8.54999 2.25C8.13579 2.25 7.79999 2.58579 7.79999 3C7.79999 3.41421 8.13579 3.75 8.54999 3.75V2.25ZM10.5 3.75C10.9142 3.75 11.25 3.41421 11.25 3C11.25 2.58579 10.9142 2.25 10.5 2.25V3.75ZM2.7 3.75C3.11422 3.75 3.45 3.41421 3.45 3C3.45 2.58579 3.11422 2.25 2.7 2.25V3.75ZM0.75 2.25C0.33579 2.25 0 2.58579 0 3C0 3.41421 0.33579 3.75 0.75 3.75V2.25ZM3.24968 8.333V11.666H4.74969V8.333H3.24968ZM6.50029 8.333V11.666H8.00029V8.333H6.50029ZM8.54999 3.75H10.5V2.25H8.54999V3.75ZM2.7 2.25H0.75V3.75H2.7V2.25Z" fill="black"/>
<path d="M3.24968 9.083H4.74969V7.583H3.24968V9.083ZM4.74969 10.916H3.24968V12.416H4.74969V10.916ZM6.50029 9.083H8.00029V7.583H6.50029V9.083ZM8.00029 10.916H6.50029V12.416H8.00029V10.916ZM9.29999 3.75V2.25H7.79999V3.75H9.29999ZM9.74999 2.25V3.75H11.25V2.25H9.74999ZM1.95 2.25V3.75H3.45V2.25H1.95ZM1.5 3.75V2.25H0V3.75H1.5ZM6.24969 8.333C6.24969 7.09037 5.24232 6.083 3.99969 6.083V9.083C3.58546 9.083 3.24969 8.74723 3.24969 8.333H6.24969ZM3.99969 6.083C2.75702 6.083 1.74968 7.09038 1.74968 8.333H4.74968C4.74968 8.74722 4.4139 9.083 3.99969 9.083V6.083ZM1.74968 11.666C1.74968 12.9086 2.75702 13.916 3.99969 13.916V10.916C4.4139 10.916 4.74968 11.2518 4.74968 11.666H1.74968ZM3.99969 13.916C5.24232 13.916 6.24969 12.9086 6.24969 11.666H3.24969C3.24969 11.2518 3.58546 10.916 3.99969 10.916V13.916ZM9.50029 8.333C9.50029 7.0905 8.49315 6.083 7.25029 6.083V9.083C6.83603 9.083 6.50029 8.7471 6.50029 8.333H9.50029ZM7.25029 6.083C6.00766 6.083 5.00029 7.09037 5.00029 8.333H8.00029C8.00029 8.74723 7.66452 9.083 7.25029 9.083V6.083ZM5.00029 11.666C5.00029 12.9086 6.00766 13.916 7.25029 13.916V10.916C7.66452 10.916 8.00029 11.2518 8.00029 11.666H5.00029ZM7.25029 13.916C8.49315 13.916 9.50029 12.9085 9.50029 11.666H6.50029C6.50029 11.2519 6.83603 10.916 7.25029 10.916V13.916ZM8.54999 0.75C7.30737 0.75 6.29999 1.75735 6.29999 3H9.29999C9.29999 3.41423 8.9642 3.75 8.54999 3.75V0.75ZM6.29999 3C6.29999 4.24265 7.30737 5.25 8.54999 5.25V2.25C8.9642 2.25 9.29999 2.58577 9.29999 3H6.29999ZM10.5 5.25C11.7426 5.25 12.75 4.24265 12.75 3H9.74999C9.74999 2.58577 10.0858 2.25 10.5 2.25V5.25ZM12.75 3C12.75 1.75735 11.7426 0.75 10.5 0.75V3.75C10.0858 3.75 9.74999 3.41423 9.74999 3H12.75ZM2.7 5.25C3.94266 5.25 4.95 4.24262 4.95 3H1.95C1.95 2.5858 2.28578 2.25 2.7 2.25V5.25ZM4.95 3C4.95 1.75738 3.94266 0.75 2.7 0.75V3.75C2.28578 3.75 1.95 3.4142 1.95 3H4.95ZM0.75 0.75C-0.492637 0.75 -1.5 1.75736 -1.5 3H1.5C1.5 3.41422 1.16422 3.75 0.75 3.75V0.75ZM-1.5 3C-1.5 4.24264 -0.492637 5.25 0.75 5.25V2.25C1.16422 2.25 1.5 2.58578 1.5 3H-1.5ZM1.74968 8.333V11.666H4.74968V8.333H1.74968ZM6.24969 11.666V8.333H3.24969V11.666H6.24969ZM5.00029 8.333V11.666H8.00029V8.333H5.00029ZM9.50029 11.666V8.333H6.50029V11.666H9.50029ZM8.54999 5.25H10.5V2.25H8.54999V5.25ZM10.5 0.75H8.54999V3.75H10.5V0.75ZM2.7 0.75H0.75V3.75H2.7V0.75ZM0.75 5.25H2.7V2.25H0.75V5.25Z" fill="#DD3B41" mask="url(#path-3-inside-1_1784_10)"/>
</svg>
