<svg width="25" height="26" viewBox="0 0 25 26" fill="none" xmlns="http://www.w3.org/2000/svg">
<path d="M19.416 8.24719L19.9722 7.69106C20.8935 6.76965 22.3875 6.76965 23.3089 7.69106C24.2304 8.61248 24.2304 10.1064 23.3089 11.0278L22.7528 11.584M19.416 8.24719C19.416 8.24719 19.4856 9.42896 20.5283 10.4717C21.5711 11.5144 22.7528 11.584 22.7528 11.584M19.416 8.24719L14.3033 13.3599C13.957 13.7062 13.7838 13.8793 13.6349 14.0703C13.4593 14.2955 13.3087 14.5392 13.1859 14.797C13.0817 15.0156 13.0042 15.2478 12.8494 15.7125L12.3535 17.2L12.1931 17.6812M22.7528 11.584L17.6401 16.6967C17.2938 17.043 17.1206 17.2162 16.9297 17.3651C16.7045 17.5407 16.4608 17.6913 16.203 17.8141C15.9844 17.9183 15.7522 17.9958 15.2875 18.1506L13.8 18.6465L13.3188 18.8069M12.1931 17.6812L12.0327 18.1625C11.9565 18.3911 12.016 18.6432 12.1864 18.8136C12.3568 18.984 12.6089 19.0435 12.8375 18.9673L13.3188 18.8069M12.1931 17.6812L13.3188 18.8069" stroke="white" stroke-width="1.5"/>
<path d="M7 14H10" stroke="white" stroke-width="1.5" stroke-linecap="round"/>
<path d="M7 9H15" stroke="white" stroke-width="1.5" stroke-linecap="round"/>
<path d="M7 19H9" stroke="white" stroke-width="1.5" stroke-linecap="round"/>
<path d="M21.578 2.40588C20.1455 1 17.8396 1 13.2281 1H10.7825C6.17098 1 3.86523 1 2.43261 2.40588C1 3.81178 1 6.07451 1 10.6V15.4C1 19.9254 1 22.1883 2.43261 23.5941C3.86523 25 6.17098 25 10.7825 25H13.2281C17.8396 25 20.1455 25 21.578 23.5941C22.7312 22.4624 22.9561 20.7755 23 17.8" stroke="white" stroke-width="1.5" stroke-linecap="round"/>
</svg>
