<svg width="27" height="27" viewBox="0 0 27 27" fill="none" xmlns="http://www.w3.org/2000/svg">
<path d="M9.20846 11.9769L8.47232 11.2797M12.5211 15.1146L11.7849 14.4173M15.8337 18.2523L15.0975 17.555M2.78319 12.8626L12.6453 2.45078C13.4575 1.59326 13.8637 1.16445 14.3344 0.988936C14.7484 0.834542 15.1955 0.81361 15.6115 0.929249C16.0846 1.06066 16.4968 1.45116 17.3214 2.23217L18.2784 3.13861C16.8766 4.61847 16.8938 6.91074 18.3168 8.25855C19.7397 9.60635 22.0296 9.4993 23.4313 8.01944L24.3883 8.92588C25.2128 9.70688 25.6251 10.0974 25.7819 10.5626C25.9199 10.9717 25.9233 11.4194 25.7915 11.8411C25.6418 12.3206 25.2356 12.7494 24.4234 13.607L14.5613 24.0188C13.7491 24.8764 13.343 25.3051 12.8722 25.4807C12.4582 25.6351 12.0111 25.656 11.5951 25.5404C11.1221 25.409 10.7098 25.0185 9.88521 24.2374L8.92824 23.331C10.33 21.8511 10.3128 19.5589 8.88981 18.2111C7.46686 16.8633 5.17703 16.9703 3.77531 18.4502L2.81833 17.5437C1.99379 16.7627 1.58151 16.3722 1.42466 15.907C1.28667 15.4978 1.28331 15.0503 1.41506 14.6285C1.56482 14.1489 1.97095 13.7202 2.78319 12.8626Z" stroke="white" stroke-width="1.5" stroke-linecap="round" stroke-linejoin="round"/>
</svg>
