<svg width="18" height="18" viewBox="0 0 18 18" fill="none" xmlns="http://www.w3.org/2000/svg">
<g id="plus-svgrepo-com 1" clip-path="url(#clip0_976_974)">
<path id="Vector" d="M9 0C4.02975 0 0 4.02919 0 9C0 13.9708 4.02919 18 9 18C13.9708 18 18 13.9708 18 9C18 4.02919 13.9708 0 9 0ZM9 16.893C4.6575 16.893 1.125 13.3425 1.125 9C1.125 4.6575 4.6575 1.125 9 1.125C13.3425 1.125 16.875 4.6575 16.875 9C16.875 13.3425 13.3425 16.893 9 16.893ZM12.9375 8.4375H9.5625V5.0625C9.5625 4.752 9.3105 4.5 9 4.5C8.6895 4.5 8.4375 4.752 8.4375 5.0625V8.4375H5.0625C4.752 8.4375 4.5 8.6895 4.5 9C4.5 9.3105 4.752 9.5625 5.0625 9.5625H8.4375V12.9375C8.4375 13.248 8.6895 13.5 9 13.5C9.3105 13.5 9.5625 13.248 9.5625 12.9375V9.5625H12.9375C13.248 9.5625 13.5 9.3105 13.5 9C13.5 8.6895 13.248 8.4375 12.9375 8.4375Z" fill="#3B9756"/>
</g>
<defs>
<clipPath id="clip0_976_974">
<rect width="18" height="18" fill="white"/>
</clipPath>
</defs>
</svg>
