<svg width="29" height="34" viewBox="0 0 29 34" fill="none" xmlns="http://www.w3.org/2000/svg">
<line x1="1.75" y1="1.25" x2="27.25" y2="1.25" stroke="white" stroke-width="1.5" stroke-linecap="round"/>
<path d="M1 33L28 33" stroke="white" stroke-width="1.5" stroke-linecap="round"/>
<line x1="3.75" y1="2" x2="3.75" y2="33" stroke="white" stroke-width="1.5"/>
<line x1="24.75" y1="2" x2="24.75" y2="33" stroke="white" stroke-width="1.5"/>
<rect x="7.75" y="6.75" width="1.5" height="1.5" stroke="white" stroke-width="1.5"/>
<rect x="7.75" y="12.75" width="1.5" height="1.5" stroke="white" stroke-width="1.5"/>
<rect x="13.75" y="6.75" width="1.5" height="1.5" stroke="white" stroke-width="1.5"/>
<rect x="13.75" y="12.75" width="1.5" height="1.5" stroke="white" stroke-width="1.5"/>
<rect x="19.75" y="6.75" width="1.5" height="1.5" stroke="white" stroke-width="1.5"/>
<rect x="19.75" y="12.75" width="1.5" height="1.5" stroke="white" stroke-width="1.5"/>
<rect x="19.75" y="19.75" width="1.5" height="1.5" stroke="white" stroke-width="1.5"/>
<mask id="path-12-inside-1_1009_2506" fill="white">
<path d="M7 19.5C7 18.9477 7.44772 18.5 8 18.5H16C16.5523 18.5 17 18.9477 17 19.5V33.5H7V19.5Z"/>
</mask>
<path d="M7 19.5C7 18.9477 7.44772 18.5 8 18.5H16C16.5523 18.5 17 18.9477 17 19.5V33.5H7V19.5Z" stroke="white" stroke-width="3" mask="url(#path-12-inside-1_1009_2506)"/>
</svg>
