<svg width="26" height="23" viewBox="0 0 26 23" fill="none" xmlns="http://www.w3.org/2000/svg">
<path d="M19.75 21.25C21.25 19.75 24.325 16.525 24.625 15.625C24.925 14.725 25 6.75 25 2.875C25 2.25 24.625 1 23.125 1C21.625 1 21.25 2 21.25 2.5V10C21.25 10.375 21.1 11.425 20.5 12.625C19.9 13.825 17.75 16.625 16.75 17.875" stroke="white" stroke-width="1.5" stroke-linecap="round"/>
<path d="M21.2499 10.3688C21.2499 8.86787 19.5166 7.96604 18.3611 8.86714C16.9166 9.99352 11.4999 16.3768 11.4999 21.2578" stroke="white" stroke-width="1.5" stroke-linecap="round"/>
<rect x="6.25" y="15.9922" width="7.5" height="6" fill="#791B1E"/>
<path d="M6.25 21.25C4.75 19.75 1.675 16.525 1.375 15.625C1.075 14.725 1 6.75 1 2.875C1 2.25 1.375 1 2.875 1C4.375 1 4.75 2 4.75 2.5V10C4.75 10.375 4.9 11.425 5.5 12.625C6.1 13.825 8.25 16.625 9.25 17.875" stroke="white" stroke-width="1.5" stroke-linecap="round"/>
<path d="M4.75006 10.3688C4.75006 8.86787 6.48339 7.96604 7.63895 8.86714C9.08339 9.99352 14.5001 16.3768 14.5001 21.2578" stroke="white" stroke-width="1.5" stroke-linecap="round"/>
</svg>
