<svg width="26" height="26" viewBox="0 0 26 26" fill="none" xmlns="http://www.w3.org/2000/svg">
<path d="M16.108 18.2537L17.882 16.4796C18.155 16.2033 18.4801 15.9838 18.8384 15.8341C19.1967 15.6845 19.5812 15.6075 19.9694 15.6075C20.3578 15.6075 20.7422 15.6845 21.1006 15.8341C21.4589 15.9838 21.784 16.2033 22.0569 16.4796L24.1376 18.5605C24.4138 18.8334 24.6333 19.1582 24.7829 19.5166C24.9326 19.8748 25.0097 20.2595 25.0097 20.6478C25.0097 21.0362 24.9326 21.4207 24.7829 21.7791C24.6333 22.1374 24.4138 22.4622 24.1376 22.7351L23.1906 23.6954C22.5381 24.3543 21.6942 24.7905 20.7792 24.9413C19.8642 25.0922 18.9249 24.9504 18.0954 24.5359C10.9572 20.8613 5.14307 15.0517 1.46273 7.91659C1.04782 7.08618 0.90694 6.14558 1.06033 5.23006C1.21372 4.31453 1.65348 3.47113 2.3164 2.8213L3.26336 1.86099C3.81813 1.30957 4.56858 1 5.35079 1C6.13299 1 6.88344 1.30957 7.43821 1.86099L9.53232 3.95517C10.0837 4.50996 10.3933 5.26031 10.3933 6.04253C10.3933 6.82473 10.0837 7.57509 9.53232 8.12988L7.75832 9.90396C8.93129 11.4906 10.2197 12.9883 11.6131 14.3854C12.9984 15.7731 14.4877 17.053 16.068 18.2137L16.108 18.2537Z" stroke="white" stroke-width="1.5" stroke-linecap="round" stroke-linejoin="round"/>
</svg>
