<svg width="24" height="24" viewBox="0 0 24 24" fill="none" xmlns="http://www.w3.org/2000/svg">
<rect x="0.75" y="0.75" width="22.5" height="22.5" rx="3.25" stroke="white" stroke-width="1.5"/>
<path d="M12.6977 16.2095V17.3262C12.6977 17.4147 12.6804 17.5022 12.6468 17.584C12.6133 17.6657 12.564 17.7402 12.5021 17.8027C12.4401 17.8654 12.3664 17.9148 12.2855 17.9487C12.2045 17.9825 12.1175 18 12.0298 18C11.9422 18 11.8553 17.9825 11.7743 17.9487C11.6933 17.9148 11.6197 17.8654 11.5577 17.8027C11.4957 17.7402 11.4465 17.6657 11.413 17.584C11.3794 17.5022 11.3621 17.4147 11.3621 17.3262V16.1796C10.9198 16.1062 10.4965 15.9449 10.1166 15.7049C9.73674 15.4648 9.40799 15.1508 9.1495 14.7812C9.05536 14.6606 9.00287 14.5123 9 14.3588C9.00125 14.2725 9.01967 14.1873 9.05418 14.1084C9.08867 14.0294 9.13858 13.9583 9.20087 13.8992C9.26317 13.84 9.33658 13.7942 9.4168 13.7644C9.49701 13.7344 9.58237 13.721 9.66779 13.725C9.75229 13.7252 9.8358 13.7434 9.91303 13.7781C9.99025 13.8128 10.0594 13.8632 10.1162 13.9264C10.4376 14.3464 10.8692 14.6669 11.3621 14.8517V12.2867C10.0365 11.7637 9.36877 10.979 9.36877 9.96308C9.38874 9.4192 9.60056 8.9004 9.96604 8.5002C10.3315 8.09999 10.8266 7.84478 11.3621 7.78042V6.67385C11.3621 6.58536 11.3794 6.49777 11.413 6.41601C11.4465 6.33424 11.4957 6.26003 11.5577 6.19744C11.6197 6.13486 11.6933 6.0852 11.7743 6.05133C11.8553 6.01746 11.9422 6 12.0298 6C12.1175 6 12.2045 6.01746 12.2855 6.05133C12.3664 6.0852 12.4401 6.13486 12.5021 6.19744C12.564 6.26003 12.6133 6.33424 12.6468 6.41601C12.6804 6.49777 12.6977 6.58536 12.6977 6.67385V7.77035C13.0686 7.829 13.4239 7.96253 13.7424 8.16302C14.0609 8.36351 14.3361 8.62675 14.5514 8.93707C14.6464 9.0502 14.7024 9.19157 14.7109 9.33954C14.7136 9.42624 14.6991 9.51245 14.6684 9.59352C14.6376 9.67449 14.5913 9.74863 14.5319 9.81129C14.4725 9.87406 14.4013 9.92425 14.3226 9.95895C14.2438 9.99366 14.159 10.0122 14.073 10.0135C13.9831 10.011 13.8947 9.98903 13.8139 9.9491C13.733 9.90916 13.6617 9.85223 13.6046 9.78212C13.367 9.48247 13.0537 9.25323 12.6977 9.11835V11.3816L12.9469 11.4819C14.2126 11.9849 15 12.7092 15 13.8559C14.9851 14.4703 14.7387 15.0558 14.3109 15.4932C13.8831 15.9305 13.3062 16.1866 12.6977 16.2095ZM11.3621 10.7981V9.15838C11.2012 9.21722 11.0628 9.32566 10.9662 9.46829C10.8697 9.61082 10.8199 9.78041 10.824 9.95302C10.821 10.1318 10.8704 10.3076 10.9662 10.4579C11.062 10.6082 11.1997 10.7265 11.3621 10.7981ZM13.5448 13.8861C13.5448 13.4033 13.216 13.1116 12.6977 12.8802V14.892C12.9353 14.8556 13.152 14.7337 13.3077 14.549C13.4633 14.3641 13.5476 14.1287 13.5448 13.8861Z" fill="white"/>
</svg>
