<svg width="20" height="28" viewBox="0 0 20 28" fill="none" xmlns="http://www.w3.org/2000/svg">
<mask id="path-1-inside-1_1009_172" fill="white">
<path fill-rule="evenodd" clip-rule="evenodd" d="M16.3525 7.3683C16.4298 6.98607 16.4702 6.5913 16.4702 6.1875C16.4702 2.77024 13.5733 0 9.99978 0C6.42626 0 3.52935 2.77024 3.52935 6.1875C3.52935 6.59136 3.56981 6.98618 3.64707 7.36846C1.4882 8.3712 0 10.4881 0 12.9374C0 16.3547 2.89691 19.1249 6.47043 19.1249C7.77259 19.1249 8.98491 18.7571 9.99997 18.1241C11.015 18.7571 12.2273 19.1249 13.5295 19.1249C17.103 19.1249 19.9999 16.3547 19.9999 12.9374C19.9999 10.488 18.5116 8.37097 16.3525 7.3683Z"/>
</mask>
<path d="M16.3525 7.3683L14.8822 7.0712C14.7448 7.75113 15.0916 8.43658 15.7207 8.72875L16.3525 7.3683ZM3.64707 7.36846L4.27895 8.72888C4.90805 8.43667 5.25475 7.75123 5.11734 7.07132L3.64707 7.36846ZM9.99997 18.1241L10.7936 16.8513C10.3079 16.5484 9.69206 16.5484 9.20629 16.8513L9.99997 18.1241ZM17.8228 7.66539C17.9197 7.18604 17.9702 6.69176 17.9702 6.1875H14.9702C14.9702 6.49084 14.9398 6.7861 14.8822 7.0712L17.8228 7.66539ZM17.9702 6.1875C17.9702 1.87931 14.3378 -1.5 9.99978 -1.5V1.5C12.8088 1.5 14.9702 3.66116 14.9702 6.1875H17.9702ZM9.99978 -1.5C5.66174 -1.5 2.02935 1.87931 2.02935 6.1875H5.02935C5.02935 3.66116 7.19077 1.5 9.99978 1.5V-1.5ZM2.02935 6.1875C2.02935 6.69183 2.0799 7.18618 2.17679 7.6656L5.11734 7.07132C5.05972 6.78618 5.02935 6.49088 5.02935 6.1875H2.02935ZM3.01519 6.00805C0.372895 7.23533 -1.5 9.85525 -1.5 12.9374H1.5C1.5 11.121 2.6035 9.50708 4.27895 8.72888L3.01519 6.00805ZM-1.5 12.9374C-1.5 17.2456 2.13239 20.6249 6.47043 20.6249V17.6249C3.66142 17.6249 1.5 15.4637 1.5 12.9374H-1.5ZM6.47043 20.6249C8.05777 20.6249 9.5444 20.1759 10.7936 19.3969L9.20629 16.8513C8.42543 17.3382 7.48742 17.6249 6.47043 17.6249V20.6249ZM13.5295 17.6249C12.5125 17.6249 11.5745 17.3382 10.7936 16.8513L9.20629 19.3969C10.4555 20.1759 11.9422 20.6249 13.5295 20.6249V17.6249ZM18.4999 12.9374C18.4999 15.4637 16.3385 17.6249 13.5295 17.6249V20.6249C17.8675 20.6249 21.4999 17.2456 21.4999 12.9374H18.4999ZM15.7207 8.72875C17.3963 9.5069 18.4999 11.1209 18.4999 12.9374H21.4999C21.4999 9.85508 19.6268 7.23504 16.9843 6.00785L15.7207 8.72875Z" fill="white" mask="url(#path-1-inside-1_1009_172)"/>
<path d="M9.99902 9L9.99902 27" stroke="white" stroke-width="1.5" stroke-linecap="round"/>
<path d="M6.71157 11.7104C6.33788 11.889 6.19052 12.3315 6.38245 12.6985C6.57437 13.0656 7.0329 13.2183 7.40659 13.0396L6.71157 11.7104ZM9.75948 11.9146L10.4361 11.5911L9.74109 10.2618L9.06445 10.5854L9.75948 11.9146ZM7.40659 13.0396L9.75948 11.9146L9.06445 10.5854L6.71157 11.7104L7.40659 13.0396Z" fill="white"/>
<path d="M13.8736 16.1733C14.2362 16.3735 14.7037 16.2483 14.9178 15.8937C15.1319 15.5392 15.0115 15.0894 14.6489 14.8892L13.8736 16.1733ZM10.9754 12.8611L10.3189 12.4986L9.54358 13.7827L10.2002 14.1452L10.9754 12.8611ZM14.6489 14.8892L10.9754 12.8611L10.2002 14.1452L13.8736 16.1733L14.6489 14.8892Z" fill="white"/>
</svg>
