<svg width="15" height="15" viewBox="0 0 15 15" fill="none" xmlns="http://www.w3.org/2000/svg">
<g id="edit-svgrepo-com 2" clip-path="url(#clip0_1021_2073)">
<g id="Group">
<g id="Group_2">
<g id="Group_3">
<path id="Vector" d="M9.59304 4.66117L2.53167 11.7256C2.32668 11.9306 2.32668 12.2641 2.53167 12.4691C2.63263 12.57 2.76725 12.622 2.90187 12.622C3.03649 12.622 3.17111 12.57 3.27207 12.4691L10.3334 5.4077C10.5384 5.20271 10.5384 4.86922 10.3334 4.66423C10.1315 4.45619 9.79803 4.45619 9.59304 4.66117Z" fill="white"/>
<path id="Vector_2" d="M13.1911 5.86816C13.3257 5.86816 13.4604 5.81615 13.5613 5.71518L14.3323 4.94418C15.2226 4.05386 15.2226 2.60671 14.3323 1.71945L13.2798 0.666975C12.8485 0.235583 12.2763 0 11.6675 0C11.0586 0 10.4865 0.238642 10.0551 0.666975L9.28411 1.43797C9.07912 1.64296 9.07912 1.97645 9.28411 2.18144L12.8209 5.71824C12.9219 5.81615 13.0565 5.86816 13.1911 5.86816ZM10.7986 1.40432C11.0311 1.1718 11.3401 1.0433 11.6705 1.0433C11.9979 1.0433 12.31 1.1718 12.5425 1.40432L13.595 2.45679C14.0753 2.93714 14.0753 3.71732 13.595 4.19766L13.1911 4.60152L10.3947 1.80512L10.7986 1.40432Z" fill="white"/>
<path id="Vector_3" d="M4.98238 14.2879L12.4323 6.83796C12.6373 6.63297 12.6373 6.29948 12.4323 6.09449C12.2273 5.88951 11.8938 5.88951 11.6888 6.09449L4.36742 13.422L1.13656 13.8565L1.57101 10.6256L8.56508 3.63158C8.77006 3.42659 8.77006 3.0931 8.56508 2.88812C8.36009 2.68313 8.0266 2.68313 7.82161 2.88812L0.70517 10.0107C0.622563 10.0933 0.570552 10.1973 0.555254 10.3105L0.00454038 14.398C-0.0168763 14.5602 0.0381951 14.7223 0.154457 14.8386C0.252361 14.9365 0.38698 14.9916 0.524659 14.9916C0.549135 14.9916 0.570552 14.9885 0.595028 14.9855L4.68255 14.4347C4.79575 14.4225 4.90283 14.3705 4.98238 14.2879Z" fill="white"/>
</g>
</g>
</g>
</g>
<defs>
<clipPath id="clip0_1021_2073">
<rect width="15" height="15" fill="white"/>
</clipPath>
</defs>
</svg>
