<svg width="26" height="26" viewBox="0 0 26 26" fill="none" xmlns="http://www.w3.org/2000/svg">
<path d="M24.459 20.2674L12.0496 12.6617C12.9562 11.1969 15.9934 8.94341 20.8892 11.6476C25.785 14.3519 25.309 18.5209 24.459 20.2674Z" stroke="white" stroke-width="1.5" stroke-linecap="round" stroke-linejoin="round"/>
<path d="M18.1693 16.3828L12.8995 25.0025" stroke="white" stroke-width="1.5" stroke-linecap="round" stroke-linejoin="round"/>
<path d="M21.423 10.479L20.8239 11.5423" stroke="white" stroke-width="1.5" stroke-linecap="round" stroke-linejoin="round"/>
<path d="M9.08966 6.75319C9.08966 8.01509 8.05958 9.04544 6.77978 9.04544C5.49999 9.04544 4.46991 8.01509 4.46991 6.75319C4.46991 5.49129 5.49999 4.46094 6.77978 4.46094C8.05958 4.46094 9.08966 5.49129 9.08966 6.75319Z" stroke="white" stroke-width="1.5"/>
<path d="M6.77972 2.52113V1" stroke="white" stroke-width="1.5" stroke-linecap="round" stroke-linejoin="round"/>
<path d="M3.78172 3.77091L2.69989 2.69531" stroke="white" stroke-width="1.5" stroke-linecap="round" stroke-linejoin="round"/>
<path d="M3.78172 9.79159L2.69989 10.8672" stroke="white" stroke-width="1.5" stroke-linecap="round" stroke-linejoin="round"/>
<path d="M6.77972 10.7992L6.77972 12.3203" stroke="white" stroke-width="1.5" stroke-linecap="round" stroke-linejoin="round"/>
<path d="M2.52994 6.75L1 6.75" stroke="white" stroke-width="1.5" stroke-linecap="round" stroke-linejoin="round"/>
<path d="M9.63875 3.64591L10.7206 2.57031" stroke="white" stroke-width="1.5" stroke-linecap="round" stroke-linejoin="round"/>
<path d="M10.8597 6.75L12.3896 6.75" stroke="white" stroke-width="1.5" stroke-linecap="round" stroke-linejoin="round"/>
<path d="M9.83962 9.79159L10.9214 10.8672" stroke="white" stroke-width="1.5" stroke-linecap="round" stroke-linejoin="round"/>
</svg>
